<mxfile host="app.diagrams.net" agent="Mozilla/5.0 (X11; Linux x86_64; rv:133.0) Gecko/20100101 Firefox/133.0" version="24.9.2">
  <diagram id="C5RBs43oDa-KdzZeNtuy" name="Page-1">
    <mxGraphModel dx="1434" dy="778" grid="1" gridSize="10" guides="1" tooltips="1" connect="1" arrows="1" fold="1" page="1" pageScale="1" pageWidth="2000" pageHeight="2000" math="0" shadow="0">
      <root>
        <mxCell id="WIyWlLk6GJQsqaUBKTNV-0" />
        <mxCell id="WIyWlLk6GJQsqaUBKTNV-1" parent="WIyWlLk6GJQsqaUBKTNV-0" />
        <mxCell id="DJnPqNGU1OBcBrdGDTDk-51" style="edgeStyle=orthogonalEdgeStyle;rounded=0;orthogonalLoop=1;jettySize=auto;html=1;exitX=0.5;exitY=1;exitDx=0;exitDy=0;entryX=0.5;entryY=0;entryDx=0;entryDy=0;" edge="1" parent="WIyWlLk6GJQsqaUBKTNV-1" source="DJnPqNGU1OBcBrdGDTDk-42" target="DJnPqNGU1OBcBrdGDTDk-43">
          <mxGeometry relative="1" as="geometry" />
        </mxCell>
        <mxCell id="DJnPqNGU1OBcBrdGDTDk-42" value="b = LEN(x[0],y[0],x[2],y[2])" style="rounded=0;whiteSpace=wrap;html=1;" vertex="1" parent="WIyWlLk6GJQsqaUBKTNV-1">
          <mxGeometry x="40" y="420" width="120" height="60" as="geometry" />
        </mxCell>
        <mxCell id="DJnPqNGU1OBcBrdGDTDk-47" style="edgeStyle=orthogonalEdgeStyle;rounded=0;orthogonalLoop=1;jettySize=auto;html=1;exitX=0.5;exitY=1;exitDx=0;exitDy=0;entryX=0.5;entryY=0;entryDx=0;entryDy=0;" edge="1" parent="WIyWlLk6GJQsqaUBKTNV-1" source="DJnPqNGU1OBcBrdGDTDk-1" target="DJnPqNGU1OBcBrdGDTDk-39">
          <mxGeometry relative="1" as="geometry" />
        </mxCell>
        <mxCell id="DJnPqNGU1OBcBrdGDTDk-1" value="&lt;div&gt;Start&lt;/div&gt;" style="ellipse;whiteSpace=wrap;html=1;" vertex="1" parent="WIyWlLk6GJQsqaUBKTNV-1">
          <mxGeometry x="40" width="120" height="80" as="geometry" />
        </mxCell>
        <mxCell id="DJnPqNGU1OBcBrdGDTDk-48" style="edgeStyle=orthogonalEdgeStyle;rounded=0;orthogonalLoop=1;jettySize=auto;html=1;exitX=0.5;exitY=1;exitDx=0;exitDy=0;entryX=0.5;entryY=0;entryDx=0;entryDy=0;" edge="1" parent="WIyWlLk6GJQsqaUBKTNV-1" source="DJnPqNGU1OBcBrdGDTDk-39" target="DJnPqNGU1OBcBrdGDTDk-40">
          <mxGeometry relative="1" as="geometry" />
        </mxCell>
        <mxCell id="DJnPqNGU1OBcBrdGDTDk-39" value="x[3], y[3]" style="rounded=0;whiteSpace=wrap;html=1;" vertex="1" parent="WIyWlLk6GJQsqaUBKTNV-1">
          <mxGeometry x="40" y="120" width="120" height="60" as="geometry" />
        </mxCell>
        <mxCell id="DJnPqNGU1OBcBrdGDTDk-49" style="edgeStyle=orthogonalEdgeStyle;rounded=0;orthogonalLoop=1;jettySize=auto;html=1;exitX=0.5;exitY=1;exitDx=0;exitDy=0;entryX=0.5;entryY=0;entryDx=0;entryDy=0;" edge="1" parent="WIyWlLk6GJQsqaUBKTNV-1" source="DJnPqNGU1OBcBrdGDTDk-40" target="DJnPqNGU1OBcBrdGDTDk-41">
          <mxGeometry relative="1" as="geometry" />
        </mxCell>
        <mxCell id="DJnPqNGU1OBcBrdGDTDk-40" value="enter x0, y0, x1, y1, x2, y2" style="shape=parallelogram;perimeter=parallelogramPerimeter;whiteSpace=wrap;html=1;fixedSize=1;" vertex="1" parent="WIyWlLk6GJQsqaUBKTNV-1">
          <mxGeometry x="40" y="220" width="120" height="60" as="geometry" />
        </mxCell>
        <mxCell id="DJnPqNGU1OBcBrdGDTDk-50" style="edgeStyle=orthogonalEdgeStyle;rounded=0;orthogonalLoop=1;jettySize=auto;html=1;exitX=0.5;exitY=1;exitDx=0;exitDy=0;entryX=0.5;entryY=0;entryDx=0;entryDy=0;" edge="1" parent="WIyWlLk6GJQsqaUBKTNV-1" source="DJnPqNGU1OBcBrdGDTDk-41" target="DJnPqNGU1OBcBrdGDTDk-42">
          <mxGeometry relative="1" as="geometry" />
        </mxCell>
        <mxCell id="DJnPqNGU1OBcBrdGDTDk-41" value="a = LEN(x[0],y[0],x[1],y[1])" style="rounded=0;whiteSpace=wrap;html=1;" vertex="1" parent="WIyWlLk6GJQsqaUBKTNV-1">
          <mxGeometry x="40" y="320" width="120" height="60" as="geometry" />
        </mxCell>
        <mxCell id="DJnPqNGU1OBcBrdGDTDk-52" style="edgeStyle=orthogonalEdgeStyle;rounded=0;orthogonalLoop=1;jettySize=auto;html=1;exitX=0.5;exitY=1;exitDx=0;exitDy=0;entryX=0.5;entryY=0;entryDx=0;entryDy=0;" edge="1" parent="WIyWlLk6GJQsqaUBKTNV-1" source="DJnPqNGU1OBcBrdGDTDk-43" target="DJnPqNGU1OBcBrdGDTDk-44">
          <mxGeometry relative="1" as="geometry" />
        </mxCell>
        <mxCell id="DJnPqNGU1OBcBrdGDTDk-43" value="c = LEN(x[1],y[1],x[2],y[2])" style="rounded=0;whiteSpace=wrap;html=1;" vertex="1" parent="WIyWlLk6GJQsqaUBKTNV-1">
          <mxGeometry x="40" y="520" width="120" height="60" as="geometry" />
        </mxCell>
        <mxCell id="DJnPqNGU1OBcBrdGDTDk-53" style="edgeStyle=orthogonalEdgeStyle;rounded=0;orthogonalLoop=1;jettySize=auto;html=1;exitX=0.5;exitY=1;exitDx=0;exitDy=0;" edge="1" parent="WIyWlLk6GJQsqaUBKTNV-1" source="DJnPqNGU1OBcBrdGDTDk-44" target="DJnPqNGU1OBcBrdGDTDk-45">
          <mxGeometry relative="1" as="geometry" />
        </mxCell>
        <mxCell id="DJnPqNGU1OBcBrdGDTDk-44" value="p = (a+b+c)/2" style="rounded=0;whiteSpace=wrap;html=1;" vertex="1" parent="WIyWlLk6GJQsqaUBKTNV-1">
          <mxGeometry x="40" y="620" width="120" height="60" as="geometry" />
        </mxCell>
        <mxCell id="DJnPqNGU1OBcBrdGDTDk-54" style="edgeStyle=orthogonalEdgeStyle;rounded=0;orthogonalLoop=1;jettySize=auto;html=1;exitX=0.5;exitY=1;exitDx=0;exitDy=0;entryX=0.5;entryY=0;entryDx=0;entryDy=0;" edge="1" parent="WIyWlLk6GJQsqaUBKTNV-1" source="DJnPqNGU1OBcBrdGDTDk-45" target="DJnPqNGU1OBcBrdGDTDk-46">
          <mxGeometry relative="1" as="geometry" />
        </mxCell>
        <mxCell id="DJnPqNGU1OBcBrdGDTDk-45" value="area = sqrt(p*(p-a)*(p-b)*(p-c))" style="rounded=0;whiteSpace=wrap;html=1;" vertex="1" parent="WIyWlLk6GJQsqaUBKTNV-1">
          <mxGeometry x="40" y="720" width="120" height="60" as="geometry" />
        </mxCell>
        <mxCell id="DJnPqNGU1OBcBrdGDTDk-56" style="edgeStyle=orthogonalEdgeStyle;rounded=0;orthogonalLoop=1;jettySize=auto;html=1;exitX=0.5;exitY=1;exitDx=0;exitDy=0;entryX=0.5;entryY=0;entryDx=0;entryDy=0;" edge="1" parent="WIyWlLk6GJQsqaUBKTNV-1" source="DJnPqNGU1OBcBrdGDTDk-46" target="DJnPqNGU1OBcBrdGDTDk-55">
          <mxGeometry relative="1" as="geometry" />
        </mxCell>
        <mxCell id="DJnPqNGU1OBcBrdGDTDk-46" value="print area" style="shape=parallelogram;perimeter=parallelogramPerimeter;whiteSpace=wrap;html=1;fixedSize=1;" vertex="1" parent="WIyWlLk6GJQsqaUBKTNV-1">
          <mxGeometry x="40" y="820" width="120" height="60" as="geometry" />
        </mxCell>
        <mxCell id="DJnPqNGU1OBcBrdGDTDk-55" value="End" style="ellipse;whiteSpace=wrap;html=1;" vertex="1" parent="WIyWlLk6GJQsqaUBKTNV-1">
          <mxGeometry x="40" y="920" width="120" height="80" as="geometry" />
        </mxCell>
      </root>
    </mxGraphModel>
  </diagram>
</mxfile>
